<mxfile host="app.diagrams.net" modified="2023-08-16T14:18:00.826Z" agent="Mozilla/5.0 (Windows NT 10.0; Win64; x64) AppleWebKit/537.36 (KHTML, like Gecko) Chrome/115.0.0.0 Safari/537.36 Edg/115.0.1901.203" etag="I2Wu-kYF-kEaPWjnANfN" version="21.6.8" type="device">
  <diagram name="Page-1" id="Q4Of6MLO3tttVC2rHNm6">
    <mxGraphModel dx="1114" dy="518" grid="1" gridSize="10" guides="1" tooltips="1" connect="1" arrows="1" fold="1" page="1" pageScale="1" pageWidth="1169" pageHeight="827" math="0" shadow="0">
      <root>
        <mxCell id="0" />
        <mxCell id="1" parent="0" />
        <mxCell id="7xTG2tQ71f4fsUJVzHyJ-9" value="" style="endArrow=none;html=1;rounded=0;dashed=1;strokeWidth=3;strokeColor=#B3B3B3;" parent="1" edge="1">
          <mxGeometry width="50" height="50" relative="1" as="geometry">
            <mxPoint x="560" y="560" as="sourcePoint" />
            <mxPoint x="560" y="80" as="targetPoint" />
          </mxGeometry>
        </mxCell>
        <mxCell id="PH3dMsC4z9oU-Ql8JQr0-2" value="mem" style="rounded=0;whiteSpace=wrap;html=1;" parent="1" vertex="1">
          <mxGeometry x="280" y="280" width="560" height="80" as="geometry" />
        </mxCell>
        <mxCell id="7xTG2tQ71f4fsUJVzHyJ-12" value="&amp;nbsp;wpgo&amp;nbsp;" style="edgeStyle=orthogonalEdgeStyle;rounded=0;orthogonalLoop=1;jettySize=auto;html=1;" parent="1" source="gLDA2_l6HlFzziCjuJ8G-2" target="7xTG2tQ71f4fsUJVzHyJ-11" edge="1">
          <mxGeometry relative="1" as="geometry" />
        </mxCell>
        <mxCell id="mEHnoGn4cYQKHnIHk-XJ-9" value="&amp;nbsp;wpgi&amp;nbsp;" style="edgeStyle=orthogonalEdgeStyle;rounded=0;orthogonalLoop=1;jettySize=auto;html=1;" edge="1" parent="1" source="PH3dMsC4z9oU-Ql8JQr0-7" target="PH3dMsC4z9oU-Ql8JQr0-6">
          <mxGeometry relative="1" as="geometry" />
        </mxCell>
        <mxCell id="PH3dMsC4z9oU-Ql8JQr0-7" value="b2g_w" style="rounded=0;whiteSpace=wrap;html=1;" parent="1" vertex="1">
          <mxGeometry x="280" y="200" width="80" height="40" as="geometry" />
        </mxCell>
        <mxCell id="PH3dMsC4z9oU-Ql8JQr0-15" value="&amp;nbsp;hsi&amp;nbsp;" style="edgeStyle=orthogonalEdgeStyle;rounded=0;orthogonalLoop=1;jettySize=auto;html=1;entryX=0.25;entryY=1;entryDx=0;entryDy=0;" parent="1" source="PH3dMsC4z9oU-Ql8JQr0-14" target="PH3dMsC4z9oU-Ql8JQr0-6" edge="1">
          <mxGeometry relative="1" as="geometry">
            <mxPoint x="200" y="220.0000000000001" as="targetPoint" />
          </mxGeometry>
        </mxCell>
        <mxCell id="PH3dMsC4z9oU-Ql8JQr0-14" value="full" style="ellipse;shape=cloud;whiteSpace=wrap;html=1;" parent="1" vertex="1">
          <mxGeometry x="170" y="230" width="60" height="60" as="geometry" />
        </mxCell>
        <mxCell id="PH3dMsC4z9oU-Ql8JQr0-17" value="" style="endArrow=classic;html=1;rounded=0;" parent="1" target="PH3dMsC4z9oU-Ql8JQr0-2" edge="1">
          <mxGeometry width="50" height="50" relative="1" as="geometry">
            <mxPoint x="160" y="320" as="sourcePoint" />
            <mxPoint x="280" y="320" as="targetPoint" />
          </mxGeometry>
        </mxCell>
        <mxCell id="PH3dMsC4z9oU-Ql8JQr0-20" value="elem_in_i" style="rounded=0;whiteSpace=wrap;html=1;align=right;fillColor=none;strokeColor=none;" parent="1" vertex="1">
          <mxGeometry x="150" y="310" width="10" height="20" as="geometry" />
        </mxCell>
        <mxCell id="mEHnoGn4cYQKHnIHk-XJ-13" style="edgeStyle=orthogonalEdgeStyle;rounded=0;orthogonalLoop=1;jettySize=auto;html=1;entryX=0;entryY=0.75;entryDx=0;entryDy=0;" edge="1" parent="1" source="PH3dMsC4z9oU-Ql8JQr0-21" target="PH3dMsC4z9oU-Ql8JQr0-2">
          <mxGeometry relative="1" as="geometry">
            <Array as="points">
              <mxPoint x="240" y="370" />
              <mxPoint x="240" y="340" />
            </Array>
          </mxGeometry>
        </mxCell>
        <mxCell id="PH3dMsC4z9oU-Ql8JQr0-21" value="we" style="ellipse;shape=cloud;whiteSpace=wrap;html=1;" parent="1" vertex="1">
          <mxGeometry x="210" y="350" width="60" height="60" as="geometry" />
        </mxCell>
        <mxCell id="7xTG2tQ71f4fsUJVzHyJ-2" value="&amp;nbsp;rpgi&amp;nbsp;" style="edgeStyle=orthogonalEdgeStyle;rounded=0;orthogonalLoop=1;jettySize=auto;html=1;" parent="1" source="PH3dMsC4z9oU-Ql8JQr0-24" target="PH3dMsC4z9oU-Ql8JQr0-25" edge="1">
          <mxGeometry relative="1" as="geometry" />
        </mxCell>
        <mxCell id="PH3dMsC4z9oU-Ql8JQr0-24" value="b2g_r" style="rounded=0;whiteSpace=wrap;html=1;" parent="1" vertex="1">
          <mxGeometry x="760" y="400" width="80" height="40" as="geometry" />
        </mxCell>
        <mxCell id="7xTG2tQ71f4fsUJVzHyJ-13" value="&amp;nbsp;rpgo&amp;nbsp;" style="edgeStyle=orthogonalEdgeStyle;rounded=0;orthogonalLoop=1;jettySize=auto;html=1;" parent="1" source="gLDA2_l6HlFzziCjuJ8G-1" target="7xTG2tQ71f4fsUJVzHyJ-10" edge="1">
          <mxGeometry relative="1" as="geometry" />
        </mxCell>
        <mxCell id="7xTG2tQ71f4fsUJVzHyJ-7" value="" style="endArrow=classic;html=1;rounded=0;exitX=1;exitY=0.5;exitDx=0;exitDy=0;" parent="1" source="PH3dMsC4z9oU-Ql8JQr0-2" edge="1">
          <mxGeometry width="50" height="50" relative="1" as="geometry">
            <mxPoint x="920" y="320" as="sourcePoint" />
            <mxPoint x="960" y="320" as="targetPoint" />
          </mxGeometry>
        </mxCell>
        <mxCell id="7xTG2tQ71f4fsUJVzHyJ-8" value="elem_out_o" style="rounded=0;whiteSpace=wrap;html=1;align=left;fillColor=none;strokeColor=none;" parent="1" vertex="1">
          <mxGeometry x="960" y="310" width="10" height="20" as="geometry" />
        </mxCell>
        <mxCell id="OV0KlPUjMf-srYmr-vOw-3" style="edgeStyle=orthogonalEdgeStyle;rounded=0;orthogonalLoop=1;jettySize=auto;html=1;" parent="1" source="7xTG2tQ71f4fsUJVzHyJ-10" target="PH3dMsC4z9oU-Ql8JQr0-14" edge="1">
          <mxGeometry relative="1" as="geometry" />
        </mxCell>
        <mxCell id="7xTG2tQ71f4fsUJVzHyJ-10" value="g2b_ri" style="rounded=0;whiteSpace=wrap;html=1;" parent="1" vertex="1">
          <mxGeometry x="320" y="400" width="80" height="40" as="geometry" />
        </mxCell>
        <mxCell id="OV0KlPUjMf-srYmr-vOw-4" style="edgeStyle=orthogonalEdgeStyle;rounded=0;orthogonalLoop=1;jettySize=auto;html=1;" parent="1" source="7xTG2tQ71f4fsUJVzHyJ-11" target="7xTG2tQ71f4fsUJVzHyJ-14" edge="1">
          <mxGeometry relative="1" as="geometry" />
        </mxCell>
        <mxCell id="7xTG2tQ71f4fsUJVzHyJ-11" value="g2b_wo" style="rounded=0;whiteSpace=wrap;html=1;" parent="1" vertex="1">
          <mxGeometry x="720" y="200" width="80" height="40" as="geometry" />
        </mxCell>
        <mxCell id="7xTG2tQ71f4fsUJVzHyJ-15" value="&amp;nbsp;hso&amp;nbsp;" style="edgeStyle=orthogonalEdgeStyle;rounded=0;orthogonalLoop=1;jettySize=auto;html=1;entryX=0.25;entryY=1;entryDx=0;entryDy=0;" parent="1" source="7xTG2tQ71f4fsUJVzHyJ-14" target="PH3dMsC4z9oU-Ql8JQr0-25" edge="1">
          <mxGeometry relative="1" as="geometry">
            <mxPoint x="920" y="420.0000000000001" as="targetPoint" />
            <Array as="points">
              <mxPoint x="660" y="460" />
            </Array>
          </mxGeometry>
        </mxCell>
        <mxCell id="7xTG2tQ71f4fsUJVzHyJ-14" value="empty" style="ellipse;shape=cloud;whiteSpace=wrap;html=1;" parent="1" vertex="1">
          <mxGeometry x="890" y="410" width="60" height="60" as="geometry" />
        </mxCell>
        <mxCell id="gLDA2_l6HlFzziCjuJ8G-3" value="" style="edgeStyle=orthogonalEdgeStyle;rounded=0;orthogonalLoop=1;jettySize=auto;html=1;" parent="1" source="PH3dMsC4z9oU-Ql8JQr0-6" target="gLDA2_l6HlFzziCjuJ8G-2" edge="1">
          <mxGeometry relative="1" as="geometry">
            <mxPoint x="520" y="220" as="sourcePoint" />
            <mxPoint x="720" y="220" as="targetPoint" />
          </mxGeometry>
        </mxCell>
        <mxCell id="gLDA2_l6HlFzziCjuJ8G-4" value="" style="edgeStyle=orthogonalEdgeStyle;rounded=0;orthogonalLoop=1;jettySize=auto;html=1;" parent="1" source="PH3dMsC4z9oU-Ql8JQr0-25" target="gLDA2_l6HlFzziCjuJ8G-1" edge="1">
          <mxGeometry relative="1" as="geometry">
            <mxPoint x="600" y="420" as="sourcePoint" />
            <mxPoint x="400" y="420" as="targetPoint" />
          </mxGeometry>
        </mxCell>
        <mxCell id="mEHnoGn4cYQKHnIHk-XJ-1" value="" style="group" vertex="1" connectable="0" parent="1">
          <mxGeometry x="400" y="200" width="80" height="40" as="geometry" />
        </mxCell>
        <mxCell id="PH3dMsC4z9oU-Ql8JQr0-6" value="wr_ptr_ic" style="rounded=0;whiteSpace=wrap;html=1;" parent="mEHnoGn4cYQKHnIHk-XJ-1" vertex="1">
          <mxGeometry width="80" height="40" as="geometry" />
        </mxCell>
        <mxCell id="PH3dMsC4z9oU-Ql8JQr0-10" value="" style="triangle;whiteSpace=wrap;html=1;" parent="mEHnoGn4cYQKHnIHk-XJ-1" vertex="1">
          <mxGeometry y="25" width="10" height="10" as="geometry" />
        </mxCell>
        <mxCell id="mEHnoGn4cYQKHnIHk-XJ-2" value="" style="group" vertex="1" connectable="0" parent="1">
          <mxGeometry x="600" y="200" width="80" height="40" as="geometry" />
        </mxCell>
        <mxCell id="gLDA2_l6HlFzziCjuJ8G-2" value="wr_ptr_oc" style="rounded=0;whiteSpace=wrap;html=1;" parent="mEHnoGn4cYQKHnIHk-XJ-2" vertex="1">
          <mxGeometry width="80" height="40" as="geometry" />
        </mxCell>
        <mxCell id="gLDA2_l6HlFzziCjuJ8G-6" value="" style="triangle;whiteSpace=wrap;html=1;" parent="mEHnoGn4cYQKHnIHk-XJ-2" vertex="1">
          <mxGeometry y="25" width="10" height="10" as="geometry" />
        </mxCell>
        <mxCell id="mEHnoGn4cYQKHnIHk-XJ-3" value="" style="group" vertex="1" connectable="0" parent="1">
          <mxGeometry x="640" y="400" width="80" height="40" as="geometry" />
        </mxCell>
        <mxCell id="PH3dMsC4z9oU-Ql8JQr0-25" value="rd_ptr_oc" style="rounded=0;whiteSpace=wrap;html=1;" parent="mEHnoGn4cYQKHnIHk-XJ-3" vertex="1">
          <mxGeometry width="80" height="40" as="geometry" />
        </mxCell>
        <mxCell id="7xTG2tQ71f4fsUJVzHyJ-3" value="" style="triangle;whiteSpace=wrap;html=1;" parent="mEHnoGn4cYQKHnIHk-XJ-3" vertex="1">
          <mxGeometry y="25" width="10" height="10" as="geometry" />
        </mxCell>
        <mxCell id="mEHnoGn4cYQKHnIHk-XJ-10" style="edgeStyle=orthogonalEdgeStyle;rounded=0;orthogonalLoop=1;jettySize=auto;html=1;" edge="1" parent="1" source="mEHnoGn4cYQKHnIHk-XJ-6" target="PH3dMsC4z9oU-Ql8JQr0-14">
          <mxGeometry relative="1" as="geometry" />
        </mxCell>
        <mxCell id="mEHnoGn4cYQKHnIHk-XJ-6" value="g2b_wi" style="rounded=0;whiteSpace=wrap;html=1;" vertex="1" parent="1">
          <mxGeometry x="280" y="120" width="80" height="40" as="geometry" />
        </mxCell>
        <mxCell id="mEHnoGn4cYQKHnIHk-XJ-8" style="edgeStyle=orthogonalEdgeStyle;rounded=0;orthogonalLoop=1;jettySize=auto;html=1;" edge="1" parent="1" source="mEHnoGn4cYQKHnIHk-XJ-7" target="mEHnoGn4cYQKHnIHk-XJ-6">
          <mxGeometry relative="1" as="geometry">
            <Array as="points">
              <mxPoint x="520" y="140" />
            </Array>
          </mxGeometry>
        </mxCell>
        <mxCell id="mEHnoGn4cYQKHnIHk-XJ-7" value="" style="shape=waypoint;sketch=0;size=6;pointerEvents=1;points=[];fillColor=none;resizable=0;rotatable=0;perimeter=centerPerimeter;snapToPoint=1;" vertex="1" parent="1">
          <mxGeometry x="510" y="210" width="20" height="20" as="geometry" />
        </mxCell>
        <mxCell id="mEHnoGn4cYQKHnIHk-XJ-4" value="" style="group" vertex="1" connectable="0" parent="1">
          <mxGeometry x="440" y="400" width="80" height="40" as="geometry" />
        </mxCell>
        <mxCell id="gLDA2_l6HlFzziCjuJ8G-1" value="rd_ptr_ic" style="rounded=0;whiteSpace=wrap;html=1;" parent="mEHnoGn4cYQKHnIHk-XJ-4" vertex="1">
          <mxGeometry width="80" height="40" as="geometry" />
        </mxCell>
        <mxCell id="gLDA2_l6HlFzziCjuJ8G-5" value="" style="triangle;whiteSpace=wrap;html=1;" parent="mEHnoGn4cYQKHnIHk-XJ-4" vertex="1">
          <mxGeometry y="25" width="10" height="10" as="geometry" />
        </mxCell>
        <mxCell id="mEHnoGn4cYQKHnIHk-XJ-12" style="edgeStyle=orthogonalEdgeStyle;rounded=0;orthogonalLoop=1;jettySize=auto;html=1;" edge="1" parent="1" source="mEHnoGn4cYQKHnIHk-XJ-18" target="7xTG2tQ71f4fsUJVzHyJ-14">
          <mxGeometry relative="1" as="geometry">
            <Array as="points">
              <mxPoint x="920" y="500" />
            </Array>
          </mxGeometry>
        </mxCell>
        <mxCell id="mEHnoGn4cYQKHnIHk-XJ-11" value="" style="shape=waypoint;sketch=0;size=6;pointerEvents=1;points=[];fillColor=none;resizable=0;rotatable=0;perimeter=centerPerimeter;snapToPoint=1;" vertex="1" parent="1">
          <mxGeometry x="590" y="410" width="20" height="20" as="geometry" />
        </mxCell>
        <mxCell id="mEHnoGn4cYQKHnIHk-XJ-15" style="edgeStyle=orthogonalEdgeStyle;rounded=0;orthogonalLoop=1;jettySize=auto;html=1;entryX=0;entryY=0.25;entryDx=0;entryDy=0;" edge="1" parent="1" source="mEHnoGn4cYQKHnIHk-XJ-14" target="PH3dMsC4z9oU-Ql8JQr0-2">
          <mxGeometry relative="1" as="geometry">
            <Array as="points">
              <mxPoint x="240" y="300" />
            </Array>
          </mxGeometry>
        </mxCell>
        <mxCell id="mEHnoGn4cYQKHnIHk-XJ-14" value="" style="shape=waypoint;sketch=0;size=6;pointerEvents=1;points=[];fillColor=none;resizable=0;rotatable=0;perimeter=centerPerimeter;snapToPoint=1;" vertex="1" parent="1">
          <mxGeometry x="230" y="130" width="20" height="20" as="geometry" />
        </mxCell>
        <mxCell id="mEHnoGn4cYQKHnIHk-XJ-17" style="edgeStyle=orthogonalEdgeStyle;rounded=0;orthogonalLoop=1;jettySize=auto;html=1;entryX=1;entryY=0.25;entryDx=0;entryDy=0;" edge="1" parent="1" source="mEHnoGn4cYQKHnIHk-XJ-16" target="PH3dMsC4z9oU-Ql8JQr0-2">
          <mxGeometry relative="1" as="geometry">
            <Array as="points">
              <mxPoint x="880" y="300" />
            </Array>
          </mxGeometry>
        </mxCell>
        <mxCell id="mEHnoGn4cYQKHnIHk-XJ-16" value="" style="shape=waypoint;sketch=0;size=6;pointerEvents=1;points=[];fillColor=none;resizable=0;rotatable=0;perimeter=centerPerimeter;snapToPoint=1;" vertex="1" parent="1">
          <mxGeometry x="870" y="490" width="20" height="20" as="geometry" />
        </mxCell>
        <mxCell id="mEHnoGn4cYQKHnIHk-XJ-19" value="" style="edgeStyle=orthogonalEdgeStyle;rounded=0;orthogonalLoop=1;jettySize=auto;html=1;" edge="1" parent="1" source="mEHnoGn4cYQKHnIHk-XJ-11" target="mEHnoGn4cYQKHnIHk-XJ-18">
          <mxGeometry relative="1" as="geometry">
            <mxPoint x="600" y="420" as="sourcePoint" />
            <mxPoint x="920" y="450" as="targetPoint" />
            <Array as="points">
              <mxPoint x="600" y="500" />
            </Array>
          </mxGeometry>
        </mxCell>
        <mxCell id="mEHnoGn4cYQKHnIHk-XJ-18" value="g2b_ro" style="rounded=0;whiteSpace=wrap;html=1;" vertex="1" parent="1">
          <mxGeometry x="760" y="480" width="80" height="40" as="geometry" />
        </mxCell>
        <mxCell id="mEHnoGn4cYQKHnIHk-XJ-22" value="wr_ptr_pass" style="whiteSpace=wrap;html=1;strokeColor=none;fillColor=none;fontColor=#007FFF;" vertex="1" parent="1">
          <mxGeometry x="440" y="140" width="80" height="30" as="geometry" />
        </mxCell>
        <mxCell id="mEHnoGn4cYQKHnIHk-XJ-23" value="rd_ptr_pass" style="whiteSpace=wrap;html=1;strokeColor=none;fillColor=none;fontColor=#007FFF;" vertex="1" parent="1">
          <mxGeometry x="600" y="470" width="80" height="30" as="geometry" />
        </mxCell>
        <mxCell id="mEHnoGn4cYQKHnIHk-XJ-27" value="&amp;nbsp;+1&amp;nbsp;" style="edgeStyle=orthogonalEdgeStyle;rounded=0;orthogonalLoop=1;jettySize=auto;html=1;" edge="1" parent="1" source="mEHnoGn4cYQKHnIHk-XJ-26" target="PH3dMsC4z9oU-Ql8JQr0-7">
          <mxGeometry x="0.3333" relative="1" as="geometry">
            <mxPoint as="offset" />
          </mxGeometry>
        </mxCell>
        <mxCell id="mEHnoGn4cYQKHnIHk-XJ-26" value="" style="shape=waypoint;sketch=0;size=6;pointerEvents=1;points=[];fillColor=none;resizable=0;rotatable=0;perimeter=centerPerimeter;snapToPoint=1;" vertex="1" parent="1">
          <mxGeometry x="230" y="210" width="20" height="20" as="geometry" />
        </mxCell>
        <mxCell id="mEHnoGn4cYQKHnIHk-XJ-28" value="&amp;nbsp;+1&amp;nbsp;" style="edgeStyle=orthogonalEdgeStyle;rounded=0;orthogonalLoop=1;jettySize=auto;html=1;" edge="1" parent="1" source="mEHnoGn4cYQKHnIHk-XJ-29" target="PH3dMsC4z9oU-Ql8JQr0-24">
          <mxGeometry x="0.3333" relative="1" as="geometry">
            <mxPoint x="920" y="420" as="targetPoint" />
            <mxPoint as="offset" />
          </mxGeometry>
        </mxCell>
        <mxCell id="mEHnoGn4cYQKHnIHk-XJ-29" value="" style="shape=waypoint;sketch=0;size=6;pointerEvents=1;points=[];fillColor=none;resizable=0;rotatable=0;perimeter=centerPerimeter;snapToPoint=1;" vertex="1" parent="1">
          <mxGeometry x="870" y="410" width="20" height="20" as="geometry" />
        </mxCell>
        <mxCell id="mEHnoGn4cYQKHnIHk-XJ-30" value="rd_addr" style="text;html=1;align=center;verticalAlign=middle;resizable=0;points=[];autosize=1;strokeColor=none;fillColor=none;" vertex="1" parent="1">
          <mxGeometry x="850" y="500" width="60" height="30" as="geometry" />
        </mxCell>
        <mxCell id="mEHnoGn4cYQKHnIHk-XJ-31" value="wr_addr" style="text;html=1;align=center;verticalAlign=middle;resizable=0;points=[];autosize=1;strokeColor=none;fillColor=none;" vertex="1" parent="1">
          <mxGeometry x="210" y="110" width="70" height="30" as="geometry" />
        </mxCell>
        <mxCell id="mEHnoGn4cYQKHnIHk-XJ-32" value="wr_addr_" style="text;html=1;align=center;verticalAlign=middle;resizable=0;points=[];autosize=1;strokeColor=none;fillColor=none;" vertex="1" parent="1">
          <mxGeometry x="850" y="190" width="70" height="30" as="geometry" />
        </mxCell>
        <mxCell id="mEHnoGn4cYQKHnIHk-XJ-33" value="rd_addr_" style="text;html=1;align=center;verticalAlign=middle;resizable=0;points=[];autosize=1;strokeColor=none;fillColor=none;" vertex="1" parent="1">
          <mxGeometry x="200" y="420" width="70" height="30" as="geometry" />
        </mxCell>
      </root>
    </mxGraphModel>
  </diagram>
</mxfile>
